<svg
        width="699"
        height="225"
        viewBox="0 0 699 225"
        fill="none"
        xmlns="http://www.w3.org/2000/svg"
      >
        <rect width="699" height="225" fill="#232329" />
        <path
          d="M107.729 79.381C107.729 81.0932 107.942 84.9635 108.265 89.1051C109.344 97.5692 109.451 100.16 109.666 100.966C109.774 101.346 109.88 101.666 109.99 102.318"
          stroke="black"
          stroke-opacity="0.4"
          stroke-width="2"
          stroke-linecap="round"
        />
        <path
          d="M105.144 77.7657C105.894 77.7657 107.399 77.979 110.838 78.6784C112.577 79.032 114.713 79.4844 116.983 80.0255C117.417 80.1338 117.737 80.2404 118.062 80.2953C118.386 80.3502 118.706 80.3502 119.682 80.9963"
          stroke="black"
          stroke-opacity="0.4"
          stroke-width="2"
          stroke-linecap="round"
        />
        <path
          d="M119.682 78.7349C119.789 80.0175 120.645 83.8845 121.081 89.1067C121.415 93.1069 122.266 95.8441 122.803 98.2719C122.913 99.0811 123.019 99.9437 123.181 101.178C123.236 101.879 123.236 102.732 123.236 103.61"
          stroke="black"
          stroke-opacity="0.4"
          stroke-width="2"
          stroke-linecap="round"
        />
        <path
          d="M123.236 103.61C122.379 103.61 120.444 103.397 118.454 103.127C114.087 102.105 112.368 101.459 110.696 101.081C110.316 101.026 109.997 101.026 109.667 101.026"
          stroke="black"
          stroke-opacity="0.4"
          stroke-width="2"
          stroke-linecap="round"
        />
        <path
          d="M105.584 46.6153C105.584 48.3275 105.798 52.1977 106.121 56.3393C107.2 64.8035 107.306 67.3944 107.521 68.2004C107.629 68.58 107.736 68.8998 107.846 69.5524"
          stroke="black"
          stroke-opacity="0.4"
          stroke-width="2"
          stroke-linecap="round"
        />
        <path
          d="M103 45C103.749 45 105.255 45.2132 108.694 45.9126C110.433 46.2663 112.569 46.7187 114.838 47.2598C115.273 47.368 115.593 47.4746 115.917 47.5295C116.242 47.5845 116.562 47.5845 117.538 48.2306"
          stroke="black"
          stroke-opacity="0.4"
          stroke-width="2"
          stroke-linecap="round"
        />
        <path
          d="M117.538 45.9692C117.644 47.2517 118.5 51.1187 118.936 56.341C119.271 60.3412 120.122 63.0783 120.658 65.5061C120.768 66.3154 120.875 67.1779 121.036 68.412C121.091 69.1131 121.091 69.9659 121.091 70.8446"
          stroke="black"
          stroke-opacity="0.4"
          stroke-width="2"
          stroke-linecap="round"
        />
        <path
          d="M121.091 70.8447C120.235 70.8447 118.3 70.6314 116.31 70.3617C111.942 69.3392 110.224 68.6931 108.552 68.3151C108.172 68.2602 107.852 68.2602 107.523 68.2602"
          stroke="black"
          stroke-opacity="0.4"
          stroke-width="2"
          stroke-linecap="round"
        />
        <path
          d="M226.956 113.448C228.652 113.684 232.515 114.007 236.661 114.258C245.193 114.357 247.774 114.609 248.602 114.507C248.993 114.452 249.325 114.391 249.986 114.372"
          stroke="black"
          stroke-opacity="0.4"
          stroke-width="2"
          stroke-linecap="round"
        />
        <path
          d="M299.956 78.4476C301.652 78.6838 305.515 79.0065 309.661 79.2579C318.193 79.3568 320.774 79.6086 321.602 79.5071C321.993 79.4522 322.325 79.3908 322.986 79.372"
          stroke="black"
          stroke-opacity="0.4"
          stroke-width="2"
          stroke-linecap="round"
        />
        <path
          d="M238.956 40.4476C240.652 40.6838 244.515 41.0065 248.661 41.2579C257.193 41.3568 259.774 41.6086 260.602 41.5071C260.993 41.4522 261.325 41.3908 261.986 41.372"
          stroke="black"
          stroke-opacity="0.4"
          stroke-width="2"
          stroke-linecap="round"
        />
        <path
          d="M229.956 215.448C231.652 215.684 235.515 216.007 239.661 216.258C248.193 216.357 250.774 216.609 251.602 216.507C251.993 216.452 252.325 216.391 252.986 216.372"
          stroke="black"
          stroke-opacity="0.4"
          stroke-width="2"
          stroke-linecap="round"
        />
        <path
          d="M84.9564 209.448C86.6522 209.684 90.5148 210.007 94.6614 210.258C103.193 210.357 105.774 210.609 106.602 210.507C106.993 210.452 107.325 210.391 107.986 210.372"
          stroke="black"
          stroke-opacity="0.4"
          stroke-width="2"
          stroke-linecap="round"
        />
        <path
          d="M432.956 65.4476C434.652 65.6838 438.515 66.0065 442.661 66.2579C451.193 66.3568 453.774 66.6086 454.602 66.5071C454.993 66.4522 455.325 66.3908 455.986 66.372"
          stroke="black"
          stroke-opacity="0.4"
          stroke-width="2"
          stroke-linecap="round"
        />
        <path
          d="M495.956 122.448C497.652 122.684 501.515 123.007 505.661 123.258C514.193 123.357 516.774 123.609 517.602 123.507C517.993 123.452 518.325 123.391 518.986 123.372"
          stroke="black"
          stroke-opacity="0.4"
          stroke-width="2"
          stroke-linecap="round"
        />
        <path
          d="M568.956 82.4476C570.652 82.6838 574.515 83.0065 578.661 83.2579C587.193 83.3568 589.774 83.6086 590.602 83.5071C590.993 83.4522 591.325 83.3908 591.986 83.372"
          stroke="black"
          stroke-opacity="0.4"
          stroke-width="2"
          stroke-linecap="round"
        />
        <path
          d="M649.956 39.4476C651.652 39.6838 655.515 40.0065 659.661 40.2579C668.193 40.3568 670.774 40.6086 671.602 40.5071C671.993 40.4522 672.325 40.3908 672.986 40.372"
          stroke="black"
          stroke-opacity="0.4"
          stroke-width="2"
          stroke-linecap="round"
        />
        <path
          d="M660.956 164.448C662.652 164.684 666.515 165.007 670.661 165.258C679.193 165.357 681.774 165.609 682.602 165.507C682.993 165.452 683.325 165.391 683.986 165.372"
          stroke="black"
          stroke-opacity="0.4"
          stroke-width="2"
          stroke-linecap="round"
        />
        <path
          d="M540.956 216.448C542.652 216.684 546.515 217.007 550.661 217.258C559.193 217.357 561.774 217.609 562.602 217.507C562.993 217.452 563.325 217.391 563.986 217.372"
          stroke="black"
          stroke-opacity="0.4"
          stroke-width="2"
          stroke-linecap="round"
        />
        <path
          d="M331.956 143.448C333.652 143.684 337.515 144.007 341.661 144.258C350.193 144.357 352.774 144.609 353.602 144.507C353.993 144.452 354.325 144.391 354.986 144.372"
          stroke="black"
          stroke-opacity="0.4"
          stroke-width="2"
          stroke-linecap="round"
        />
        <path
          d="M225 115.785C225.103 115.042 225.522 113.581 226.689 110.271C227.279 108.598 228.022 106.544 228.871 104.371C229.038 103.956 229.188 103.654 229.287 103.34C229.386 103.026 229.431 102.709 230.205 101.832"
          stroke="black"
          stroke-opacity="0.4"
          stroke-width="2"
          stroke-linecap="round"
        />
        <path
          d="M298 80.7845C298.103 80.0422 298.522 78.5806 299.689 75.271C300.279 73.5977 301.022 71.5441 301.871 69.371C302.038 68.9556 302.188 68.6535 302.287 68.3395C302.386 68.0255 302.431 67.7088 303.205 66.8316"
          stroke="black"
          stroke-opacity="0.4"
          stroke-width="2"
          stroke-linecap="round"
        />
        <path
          d="M237 42.7845C237.103 42.0422 237.522 40.5806 238.689 37.271C239.279 35.5977 240.022 33.5441 240.871 31.371C241.038 30.9556 241.188 30.6535 241.287 30.3395C241.386 30.0255 241.431 29.7088 242.205 28.8316"
          stroke="black"
          stroke-opacity="0.4"
          stroke-width="2"
          stroke-linecap="round"
        />
        <path
          d="M228 217.785C228.103 217.042 228.522 215.581 229.689 212.271C230.279 210.598 231.022 208.544 231.871 206.371C232.038 205.956 232.188 205.654 232.287 205.34C232.386 205.026 232.431 204.709 233.205 203.832"
          stroke="black"
          stroke-opacity="0.4"
          stroke-width="2"
          stroke-linecap="round"
        />
        <path
          d="M83 211.785C83.1034 211.042 83.5222 209.581 84.6894 206.271C85.2795 204.598 86.0223 202.544 86.8713 200.371C87.0384 199.956 87.1881 199.654 87.2873 199.34C87.3865 199.026 87.4306 198.709 88.2051 197.832"
          stroke="black"
          stroke-opacity="0.4"
          stroke-width="2"
          stroke-linecap="round"
        />
        <path
          d="M431 67.7845C431.103 67.0422 431.522 65.5806 432.689 62.271C433.279 60.5977 434.022 58.5441 434.871 56.371C435.038 55.9556 435.188 55.6535 435.287 55.3395C435.386 55.0255 435.431 54.7088 436.205 53.8316"
          stroke="black"
          stroke-opacity="0.4"
          stroke-width="2"
          stroke-linecap="round"
        />
        <path
          d="M494 124.785C494.103 124.042 494.522 122.581 495.689 119.271C496.279 117.598 497.022 115.544 497.871 113.371C498.038 112.956 498.188 112.654 498.287 112.34C498.386 112.026 498.431 111.709 499.205 110.832"
          stroke="black"
          stroke-opacity="0.4"
          stroke-width="2"
          stroke-linecap="round"
        />
        <path
          d="M567 84.7845C567.103 84.0422 567.522 82.5806 568.689 79.271C569.279 77.5977 570.022 75.5441 570.871 73.371C571.038 72.9556 571.188 72.6535 571.287 72.3395C571.386 72.0255 571.431 71.7088 572.205 70.8316"
          stroke="black"
          stroke-opacity="0.4"
          stroke-width="2"
          stroke-linecap="round"
        />
        <path
          d="M648 41.7845C648.103 41.0422 648.522 39.5806 649.689 36.271C650.279 34.5977 651.022 32.5441 651.871 30.371C652.038 29.9556 652.188 29.6535 652.287 29.3395C652.386 29.0255 652.431 28.7088 653.205 27.8316"
          stroke="black"
          stroke-opacity="0.4"
          stroke-width="2"
          stroke-linecap="round"
        />
        <path
          d="M659 166.785C659.103 166.042 659.522 164.581 660.689 161.271C661.279 159.598 662.022 157.544 662.871 155.371C663.038 154.956 663.188 154.654 663.287 154.34C663.386 154.026 663.431 153.709 664.205 152.832"
          stroke="black"
          stroke-opacity="0.4"
          stroke-width="2"
          stroke-linecap="round"
        />
        <path
          d="M539 218.785C539.103 218.042 539.522 216.581 540.689 213.271C541.279 211.598 542.022 209.544 542.871 207.371C543.038 206.956 543.188 206.654 543.287 206.34C543.386 206.026 543.431 205.709 544.205 204.832"
          stroke="black"
          stroke-opacity="0.4"
          stroke-width="2"
          stroke-linecap="round"
        />
        <path
          d="M330 145.785C330.103 145.042 330.522 143.581 331.689 140.271C332.279 138.598 333.022 136.544 333.871 134.371C334.038 133.956 334.188 133.654 334.287 133.34C334.386 133.026 334.431 132.709 335.205 131.832"
          stroke="black"
          stroke-opacity="0.4"
          stroke-width="2"
          stroke-linecap="round"
        />
        <path
          d="M227.965 101.52C229.25 101.591 233.198 101.277 238.431 101.565C242.439 101.786 245.267 101.32 247.746 101.124C248.563 101.127 249.432 101.14 250.676 101.15C251.378 101.193 252.223 101.31 253.093 101.432"
          stroke="black"
          stroke-opacity="0.4"
          stroke-width="2"
          stroke-linecap="round"
        />
        <path
          d="M300.965 66.5197C302.25 66.591 306.198 66.2765 311.431 66.565C315.439 66.7859 318.267 66.3201 320.746 66.1238C321.563 66.1267 322.432 66.1401 323.676 66.1503C324.378 66.1927 325.223 66.3103 326.093 66.4315"
          stroke="black"
          stroke-opacity="0.4"
          stroke-width="2"
          stroke-linecap="round"
        />
        <path
          d="M239.965 28.5197C241.25 28.591 245.198 28.2765 250.431 28.565C254.439 28.7859 257.267 28.3201 259.746 28.1238C260.563 28.1267 261.432 28.1401 262.676 28.1503C263.378 28.1927 264.223 28.3103 265.093 28.4315"
          stroke="black"
          stroke-opacity="0.4"
          stroke-width="2"
          stroke-linecap="round"
        />
        <path
          d="M230.965 203.52C232.25 203.591 236.198 203.277 241.431 203.565C245.439 203.786 248.267 203.32 250.746 203.124C251.563 203.127 252.432 203.14 253.676 203.15C254.378 203.193 255.223 203.31 256.093 203.432"
          stroke="black"
          stroke-opacity="0.4"
          stroke-width="2"
          stroke-linecap="round"
        />
        <path
          d="M85.9653 197.52C87.2503 197.591 91.1984 197.277 96.4309 197.565C100.439 197.786 103.267 197.32 105.746 197.124C106.563 197.127 107.432 197.14 108.676 197.15C109.378 197.193 110.223 197.31 111.093 197.432"
          stroke="black"
          stroke-opacity="0.4"
          stroke-width="2"
          stroke-linecap="round"
        />
        <path
          d="M433.965 53.5197C435.25 53.591 439.198 53.2765 444.431 53.565C448.439 53.7859 451.267 53.3201 453.746 53.1238C454.563 53.1267 455.432 53.1401 456.676 53.1503C457.378 53.1927 458.223 53.3103 459.093 53.4315"
          stroke="black"
          stroke-opacity="0.4"
          stroke-width="2"
          stroke-linecap="round"
        />
        <path
          d="M496.965 110.52C498.25 110.591 502.198 110.277 507.431 110.565C511.439 110.786 514.267 110.32 516.746 110.124C517.563 110.127 518.432 110.14 519.676 110.15C520.378 110.193 521.223 110.31 522.093 110.432"
          stroke="black"
          stroke-opacity="0.4"
          stroke-width="2"
          stroke-linecap="round"
        />
        <path
          d="M569.965 70.5197C571.25 70.591 575.198 70.2765 580.431 70.565C584.439 70.7859 587.267 70.3201 589.746 70.1238C590.563 70.1267 591.432 70.1401 592.676 70.1503C593.378 70.1927 594.223 70.3103 595.093 70.4315"
          stroke="black"
          stroke-opacity="0.4"
          stroke-width="2"
          stroke-linecap="round"
        />
        <path
          d="M650.965 27.5197C652.25 27.591 656.198 27.2765 661.431 27.565C665.439 27.7859 668.267 27.3201 670.746 27.1238C671.563 27.1267 672.432 27.1401 673.676 27.1503C674.378 27.1927 675.223 27.3103 676.093 27.4315"
          stroke="black"
          stroke-opacity="0.4"
          stroke-width="2"
          stroke-linecap="round"
        />
        <path
          d="M661.965 152.52C663.25 152.591 667.198 152.277 672.431 152.565C676.439 152.786 679.267 152.32 681.746 152.124C682.563 152.127 683.432 152.14 684.676 152.15C685.378 152.193 686.223 152.31 687.093 152.432"
          stroke="black"
          stroke-opacity="0.4"
          stroke-width="2"
          stroke-linecap="round"
        />
        <path
          d="M541.965 204.52C543.25 204.591 547.198 204.277 552.431 204.565C556.439 204.786 559.267 204.32 561.746 204.124C562.563 204.127 563.432 204.14 564.676 204.15C565.378 204.193 566.223 204.31 567.093 204.432"
          stroke="black"
          stroke-opacity="0.4"
          stroke-width="2"
          stroke-linecap="round"
        />
        <path
          d="M332.965 131.52C334.25 131.591 338.198 131.277 343.431 131.565C347.439 131.786 350.267 131.32 352.746 131.124C353.563 131.127 354.432 131.14 355.676 131.15C356.378 131.193 357.223 131.31 358.093 131.432"
          stroke="black"
          stroke-opacity="0.4"
          stroke-width="2"
          stroke-linecap="round"
        />
        <path
          d="M64.0922 127.746C63.9741 128.594 63.496 130.481 62.9543 132.415C61.3391 136.6 60.462 138.213 59.857 139.816C59.7503 140.185 59.7062 140.502 59.6607 140.828"
          stroke="black"
          stroke-opacity="0.4"
          stroke-width="2"
          stroke-linecap="round"
        />
        <path
          d="M253.093 101.431C252.975 102.279 252.497 104.167 251.955 106.1C250.34 110.285 249.463 111.898 248.858 113.502C248.751 113.871 248.707 114.187 248.662 114.514"
          stroke="black"
          stroke-opacity="0.4"
          stroke-width="2"
          stroke-linecap="round"
        />
        <path
          d="M326.093 66.4315C325.975 67.2794 325.497 69.1666 324.955 71.1004C323.34 75.2853 322.463 76.8984 321.858 78.5021C321.751 78.8705 321.707 79.1873 321.662 79.5137"
          stroke="black"
          stroke-opacity="0.4"
          stroke-width="2"
          stroke-linecap="round"
        />
        <path
          d="M265.093 28.4315C264.975 29.2794 264.497 31.1666 263.955 33.1004C262.34 37.2853 261.463 38.8984 260.858 40.5021C260.751 40.8705 260.707 41.1873 260.662 41.5137"
          stroke="black"
          stroke-opacity="0.4"
          stroke-width="2"
          stroke-linecap="round"
        />
        <path
          d="M256.093 203.431C255.975 204.279 255.497 206.167 254.955 208.1C253.34 212.285 252.463 213.898 251.858 215.502C251.751 215.871 251.707 216.187 251.662 216.514"
          stroke="black"
          stroke-opacity="0.4"
          stroke-width="2"
          stroke-linecap="round"
        />
        <path
          d="M111.093 197.431C110.975 198.279 110.497 200.167 109.955 202.1C108.34 206.285 107.463 207.898 106.858 209.502C106.751 209.871 106.707 210.187 106.662 210.514"
          stroke="black"
          stroke-opacity="0.4"
          stroke-width="2"
          stroke-linecap="round"
        />
        <path
          d="M459.093 53.4315C458.975 54.2794 458.497 56.1666 457.955 58.1004C456.34 62.2853 455.463 63.8984 454.858 65.5021C454.751 65.8705 454.707 66.1873 454.662 66.5137"
          stroke="black"
          stroke-opacity="0.4"
          stroke-width="2"
          stroke-linecap="round"
        />
        <path
          d="M522.093 110.431C521.975 111.279 521.497 113.167 520.955 115.1C519.34 119.285 518.463 120.898 517.858 122.502C517.751 122.871 517.707 123.187 517.662 123.514"
          stroke="black"
          stroke-opacity="0.4"
          stroke-width="2"
          stroke-linecap="round"
        />
        <path
          d="M595.093 70.4315C594.975 71.2794 594.497 73.1666 593.955 75.1004C592.34 79.2853 591.463 80.8984 590.858 82.5021C590.751 82.8705 590.707 83.1873 590.662 83.5137"
          stroke="black"
          stroke-opacity="0.4"
          stroke-width="2"
          stroke-linecap="round"
        />
        <path
          d="M676.093 27.4315C675.975 28.2794 675.497 30.1666 674.955 32.1004C673.34 36.2853 672.463 37.8984 671.858 39.5021C671.751 39.8705 671.707 40.1873 671.662 40.5137"
          stroke="black"
          stroke-opacity="0.4"
          stroke-width="2"
          stroke-linecap="round"
        />
        <path
          d="M687.093 152.431C686.975 153.279 686.497 155.167 685.955 157.1C684.34 161.285 683.463 162.898 682.858 164.502C682.751 164.871 682.707 165.187 682.662 165.514"
          stroke="black"
          stroke-opacity="0.5"
          stroke-width="2"
          stroke-linecap="round"
        />
        <path
          d="M567.093 204.431C566.975 205.279 566.497 207.167 565.955 209.1C564.34 213.285 563.463 214.898 562.858 216.502C562.751 216.871 562.707 217.187 562.662 217.514"
          stroke="black"
          stroke-opacity="0.4"
          stroke-width="2"
          stroke-linecap="round"
        />
        <path
          d="M358.093 131.431C357.975 132.279 357.497 134.167 356.955 136.1C355.34 140.285 354.463 141.898 353.858 143.502C353.751 143.871 353.707 144.187 353.662 144.514"
          stroke="black"
          stroke-opacity="0.4"
          stroke-width="2"
          stroke-linecap="round"
        />
        <path
          d="M200.231 78C200.231 78.7495 199.804 81.7475 198.78 85.4174C197.993 88.2394 198.292 89.6236 198.024 91.5071C197.772 93.2766 197.646 98.8437 197.378 103.879C197.323 105.644 197.323 108.736 197.27 110.488C197.216 112.241 197.11 112.561 197 113.536"
          stroke="black"
          stroke-opacity="0.4"
          stroke-width="2"
          stroke-linecap="round"
        />
        <path
          d="M144.231 61C144.231 61.7495 143.804 64.7475 142.78 68.4174C141.993 71.2394 142.292 72.6236 142.024 74.5071C141.772 76.2766 141.646 81.8437 141.378 86.8786C141.323 88.6441 141.323 91.7357 141.27 93.4883C141.216 95.2409 141.11 95.5607 141 96.5364"
          stroke="black"
          stroke-opacity="0.4"
          stroke-width="2"
          stroke-linecap="round"
        />
        <path
          d="M60.2306 51C60.2306 51.7495 59.8041 54.7475 58.78 58.4174C57.9926 61.2394 58.2922 62.6236 58.0241 64.5071C57.7722 66.2766 57.6461 71.8437 57.378 76.8786C57.3231 78.6441 57.3231 81.7357 57.2698 83.4883C57.2164 85.2409 57.1098 85.5607 57 86.5364"
          stroke="black"
          stroke-opacity="0.4"
          stroke-width="2"
          stroke-linecap="round"
        />
        <path
          d="M308.231 11C308.231 11.7495 307.804 14.7475 306.78 18.4174C305.993 21.2394 306.292 22.6236 306.024 24.5071C305.772 26.2766 305.646 31.8437 305.378 36.8786C305.323 38.6441 305.323 41.7357 305.27 43.4883C305.216 45.2409 305.11 45.5607 305 46.5364"
          stroke="black"
          stroke-opacity="0.4"
          stroke-width="2"
          stroke-linecap="round"
        />
        <path
          d="M437.231 91C437.231 91.7495 436.804 94.7475 435.78 98.4174C434.993 101.239 435.292 102.624 435.024 104.507C434.772 106.277 434.646 111.844 434.378 116.879C434.323 118.644 434.323 121.736 434.27 123.488C434.216 125.241 434.11 125.561 434 126.536"
          stroke="black"
          stroke-opacity="0.4"
          stroke-width="2"
          stroke-linecap="round"
        />
        <path
          d="M617.231 27C617.231 27.7495 616.804 30.7475 615.78 34.4174C614.993 37.2394 615.292 38.6236 615.024 40.5071C614.772 42.2766 614.646 47.8437 614.378 52.8786C614.323 54.6441 614.323 57.7357 614.27 59.4883C614.216 61.2409 614.11 61.5607 614 62.5364"
          stroke="black"
          stroke-opacity="0.4"
          stroke-width="2"
          stroke-linecap="round"
        />
        <path
          d="M651.231 178C651.231 178.749 650.804 181.747 649.78 185.417C648.993 188.239 649.292 189.624 649.024 191.507C648.772 193.277 648.646 198.844 648.378 203.879C648.323 205.644 648.323 208.736 648.27 210.488C648.216 212.241 648.11 212.561 648 213.536"
          stroke="black"
          stroke-opacity="0.4"
          stroke-width="2"
          stroke-linecap="round"
        />
        <path
          d="M207.754 50.769C207.541 51.4119 207.002 52.3811 207 52.9723C206.998 53.6167 207.754 53.9964 208.501 54.481C210.383 55.7035 212.704 54.4325 213.456 53.9495C214.773 53.1049 215.611 51.7447 216.367 50.3975C216.56 50.0542 216.477 49.5931 216.317 49.2135C215.988 48.4319 215.188 47.9713 214.543 47.5417C213.899 47.112 212.503 46.8923 210.728 47.0522C208.943 48.1813 207.971 49.1505 207.756 49.795C207.648 50.1197 207.541 50.4395 207.431 50.769"
          stroke="black"
          stroke-opacity="0.4"
          stroke-width="2"
          stroke-linecap="round"
        />
        <path
          d="M340.754 170.769C340.541 171.412 340.002 172.381 340 172.972C339.998 173.617 340.754 173.996 341.501 174.481C343.383 175.704 345.704 174.432 346.456 173.95C347.773 173.105 348.611 171.745 349.367 170.398C349.56 170.054 349.477 169.593 349.317 169.213C348.988 168.432 348.188 167.971 347.543 167.542C346.899 167.112 345.503 166.892 343.728 167.052C341.943 168.181 340.971 169.15 340.756 169.795C340.648 170.12 340.541 170.439 340.431 170.769"
          stroke="black"
          stroke-opacity="0.4"
          stroke-width="2"
          stroke-linecap="round"
        />
        <path
          d="M382.754 208.769C382.541 209.412 382.002 210.381 382 210.972C381.998 211.617 382.754 211.996 383.501 212.481C385.383 213.704 387.704 212.432 388.456 211.95C389.773 211.105 390.611 209.745 391.367 208.398C391.56 208.054 391.477 207.593 391.317 207.213C390.988 206.432 390.188 205.971 389.543 205.542C388.899 205.112 387.503 204.892 385.728 205.052C383.943 206.181 382.971 207.15 382.756 207.795C382.648 208.12 382.541 208.439 382.431 208.769"
          stroke="black"
          stroke-opacity="0.4"
          stroke-width="2"
          stroke-linecap="round"
        />
        <path
          d="M183.754 209.769C183.541 210.412 183.002 211.381 183 211.972C182.998 212.617 183.754 212.996 184.501 213.481C186.383 214.704 188.704 213.432 189.456 212.95C190.773 212.105 191.611 210.745 192.367 209.398C192.56 209.054 192.477 208.593 192.317 208.213C191.988 207.432 191.188 206.971 190.543 206.542C189.899 206.112 188.503 205.892 186.728 206.052C184.943 207.181 183.971 208.15 183.756 208.795C183.648 209.12 183.541 209.439 183.431 209.769"
          stroke="black"
          stroke-opacity="0.4"
          stroke-width="2"
          stroke-linecap="round"
        />
        <path
          d="M33.7543 208.769C33.5411 209.412 33.0016 210.381 33 210.972C32.9982 211.617 33.7543 211.996 34.5006 212.481C36.3833 213.704 38.7036 212.432 39.4563 211.95C40.7727 211.105 41.6111 209.745 42.3671 208.398C42.5597 208.054 42.4769 207.593 42.317 207.213C41.9877 206.432 41.1879 205.971 40.5434 205.542C39.8989 205.112 38.5033 204.892 36.7281 205.052C34.9432 206.181 33.9708 207.15 33.756 207.795C33.6477 208.12 33.5411 208.439 33.4313 208.769"
          stroke="black"
          stroke-opacity="0.4"
          stroke-width="2"
          stroke-linecap="round"
        />
        <path
          d="M437.754 24.769C437.541 25.4119 437.002 26.3811 437 26.9723C436.998 27.6167 437.754 27.9964 438.501 28.481C440.383 29.7035 442.704 28.4325 443.456 27.9495C444.773 27.1049 445.611 25.7447 446.367 24.3975C446.56 24.0542 446.477 23.5931 446.317 23.2135C445.988 22.4319 445.188 21.9713 444.543 21.5417C443.899 21.112 442.503 20.8923 440.728 21.0522C438.943 22.1813 437.971 23.1505 437.756 23.795C437.648 24.1197 437.541 24.4395 437.431 24.769"
          stroke="black"
          stroke-opacity="0.4"
          stroke-width="2"
          stroke-linecap="round"
        />
        <path
          d="M501.754 197.769C501.541 198.412 501.002 199.381 501 199.972C500.998 200.617 501.754 200.996 502.501 201.481C504.383 202.704 506.704 201.432 507.456 200.95C508.773 200.105 509.611 198.745 510.367 197.398C510.56 197.054 510.477 196.593 510.317 196.213C509.988 195.432 509.188 194.971 508.543 194.542C507.899 194.112 506.503 193.892 504.728 194.052C502.943 195.181 501.971 196.15 501.756 196.795C501.648 197.12 501.541 197.439 501.431 197.769"
          stroke="black"
          stroke-opacity="0.4"
          stroke-width="2"
          stroke-linecap="round"
        />
        <path
          d="M543.754 109.769C543.541 110.412 543.002 111.381 543 111.972C542.998 112.617 543.754 112.996 544.501 113.481C546.383 114.704 548.704 113.432 549.456 112.95C550.773 112.105 551.611 110.745 552.367 109.398C552.56 109.054 552.477 108.593 552.317 108.213C551.988 107.432 551.188 106.971 550.543 106.542C549.899 106.112 548.503 105.892 546.728 106.052C544.943 107.181 543.971 108.15 543.756 108.795C543.648 109.12 543.541 109.439 543.431 109.769"
          stroke="black"
          stroke-opacity="0.4"
          stroke-width="2"
          stroke-linecap="round"
        />
        <path
          d="M104.754 146.769C104.541 147.412 104.002 148.381 104 148.972C103.998 149.617 104.754 149.996 105.501 150.481C107.383 151.704 109.704 150.432 110.456 149.95C111.773 149.105 112.611 147.745 113.367 146.398C113.56 146.054 113.477 145.593 113.317 145.213C112.988 144.432 112.188 143.971 111.543 143.542C110.899 143.112 109.503 142.892 107.728 143.052C105.943 144.181 104.971 145.15 104.756 145.795C104.648 146.12 104.541 146.439 104.431 146.769"
          stroke="black"
          stroke-opacity="0.4"
          stroke-width="2"
          stroke-linecap="round"
        />
        <path
          d="M64.7543 14.769C64.5411 15.4119 64.0016 16.3811 64 16.9723C63.9982 17.6167 64.7543 17.9964 65.5006 18.481C67.3833 19.7035 69.7036 18.4325 70.4563 17.9495C71.7727 17.1049 72.6111 15.7447 73.3671 14.3975C73.5597 14.0542 73.4769 13.5931 73.317 13.2135C72.9877 12.4319 72.1879 11.9713 71.5434 11.5417C70.8989 11.112 69.5033 10.8923 67.7281 11.0522C65.9432 12.1813 64.9708 13.1505 64.756 13.795C64.6477 14.1197 64.5411 14.4395 64.4313 14.769"
          stroke="black"
          stroke-opacity="0.4"
          stroke-width="2"
          stroke-linecap="round"
        />
        <path
          d="M34.4259 26C31.5345 26.1066 27.4349 26.7495 25.4417 27.2906C23.6147 27.7866 21.0901 29.6506 19.4086 31.2174C18.5203 32.0451 17.6301 33.1008 17.1455 34.2299C16.9419 34.7045 16.9808 35.0392 17.0874 35.3638C17.3119 36.0474 18.0533 36.6577 18.9127 37.1956C20.7732 38.3602 23.4355 37.4169 26.4448 36.7174C29.8179 35.9335 33.4535 36.4445 34.0447 36.7659C34.3488 36.9312 34.5293 37.3006 34.3726 37.6252C33.3427 39.7593 30.0194 40.2081 28.0794 40.9124C26.2903 41.5619 24.4176 42.5793 23.0704 43.2271C21.3591 44.0499 20.0046 45.1638 18.9757 46.3478C18.5174 46.8752 18.4895 47.8549 18.4345 48.8224C18.3892 49.6207 19.239 50.2261 19.9368 50.8173C22.7275 53.1817 28.6076 51.6282 29.0922 51.9496C29.3178 52.0993 29.257 52.4843 29.0971 52.7557C28.3232 54.0689 26.2525 55.282 24.5791 57.0071C23.4549 57.8664 22.3694 58.7322 21.5101 59.5383C21.0772 59.9179 20.6507 60.2377 20.2114 60.5672"
          stroke="black"
          stroke-opacity="0.4"
          stroke-width="2"
          stroke-linecap="round"
        />
        <path
          d="M92.4259 128C89.5345 128.107 85.4349 128.749 83.4417 129.291C81.6147 129.787 79.0901 131.651 77.4086 133.217C76.5203 134.045 75.6301 135.101 75.1455 136.23C74.9419 136.704 74.9808 137.039 75.0874 137.364C75.3119 138.047 76.0533 138.658 76.9127 139.196C78.7732 140.36 81.4355 139.417 84.4448 138.717C87.8179 137.933 91.4535 138.444 92.0447 138.766C92.3488 138.931 92.5293 139.301 92.3726 139.625C91.3427 141.759 88.0194 142.208 86.0794 142.912C84.2903 143.562 82.4176 144.579 81.0704 145.227C79.3591 146.05 78.0046 147.164 76.9757 148.348C76.5174 148.875 76.4895 149.855 76.4345 150.822C76.3892 151.621 77.239 152.226 77.9368 152.817C80.7275 155.182 86.6076 153.628 87.0922 153.95C87.3178 154.099 87.257 154.484 87.0971 154.756C86.3232 156.069 84.2525 157.282 82.5791 159.007C81.4549 159.866 80.3694 160.732 79.5101 161.538C79.0772 161.918 78.6507 162.238 78.2114 162.567"
          stroke="black"
          stroke-opacity="0.4"
          stroke-width="2"
          stroke-linecap="round"
        />
        <path
          d="M195.426 13C192.535 13.1066 188.435 13.7495 186.442 14.2906C184.615 14.7866 182.09 16.6506 180.409 18.2174C179.52 19.0451 178.63 20.1008 178.146 21.2299C177.942 21.7045 177.981 22.0392 178.087 22.3638C178.312 23.0474 179.053 23.6577 179.913 24.1956C181.773 25.3602 184.435 24.4169 187.445 23.7174C190.818 22.9335 194.454 23.4445 195.045 23.7659C195.349 23.9312 195.529 24.3006 195.373 24.6252C194.343 26.7593 191.019 27.2081 189.079 27.9124C187.29 28.5619 185.418 29.5793 184.07 30.2271C182.359 31.0499 181.005 32.1638 179.976 33.3478C179.517 33.8752 179.489 34.8549 179.435 35.8224C179.389 36.6207 180.239 37.2261 180.937 37.8173C183.727 40.1817 189.608 38.6282 190.092 38.9496C190.318 39.0993 190.257 39.4843 190.097 39.7557C189.323 41.0689 187.253 42.282 185.579 44.0071C184.455 44.8664 183.369 45.7322 182.51 46.5383C182.077 46.9179 181.651 47.2377 181.211 47.5672"
          stroke="black"
          stroke-opacity="0.4"
          stroke-width="2"
          stroke-linecap="round"
        />
        <path
          d="M367.426 15C364.535 15.1066 360.435 15.7495 358.442 16.2906C356.615 16.7866 354.09 18.6506 352.409 20.2174C351.52 21.0451 350.63 22.1008 350.146 23.2299C349.942 23.7045 349.981 24.0392 350.087 24.3638C350.312 25.0474 351.053 25.6577 351.913 26.1956C353.773 27.3602 356.435 26.4169 359.445 25.7174C362.818 24.9335 366.454 25.4445 367.045 25.7659C367.349 25.9312 367.529 26.3006 367.373 26.6252C366.343 28.7593 363.019 29.2081 361.079 29.9124C359.29 30.5619 357.418 31.5793 356.07 32.2271C354.359 33.0499 353.005 34.1638 351.976 35.3478C351.517 35.8752 351.489 36.8549 351.435 37.8224C351.389 38.6207 352.239 39.2261 352.937 39.8173C355.727 42.1817 361.608 40.6282 362.092 40.9496C362.318 41.0993 362.257 41.4843 362.097 41.7557C361.323 43.0689 359.253 44.282 357.579 46.0071C356.455 46.8664 355.369 47.7322 354.51 48.5383C354.077 48.9179 353.651 49.2377 353.211 49.5672"
          stroke="black"
          stroke-opacity="0.4"
          stroke-width="2"
          stroke-linecap="round"
        />
        <path
          d="M417.426 47C414.535 47.1066 410.435 47.7495 408.442 48.2906C406.615 48.7866 404.09 50.6506 402.409 52.2174C401.52 53.0451 400.63 54.1008 400.146 55.2299C399.942 55.7045 399.981 56.0392 400.087 56.3638C400.312 57.0474 401.053 57.6577 401.913 58.1956C403.773 59.3602 406.435 58.4169 409.445 57.7174C412.818 56.9335 416.454 57.4445 417.045 57.7659C417.349 57.9312 417.529 58.3006 417.373 58.6252C416.343 60.7593 413.019 61.2081 411.079 61.9124C409.29 62.5619 407.418 63.5793 406.07 64.2271C404.359 65.0499 403.005 66.1638 401.976 67.3478C401.517 67.8752 401.489 68.8549 401.435 69.8224C401.389 70.6207 402.239 71.2261 402.937 71.8173C405.727 74.1817 411.608 72.6282 412.092 72.9496C412.318 73.0993 412.257 73.4843 412.097 73.7557C411.323 75.0689 409.253 76.282 407.579 78.0071C406.455 78.8664 405.369 79.7322 404.51 80.5383C404.077 80.9179 403.651 81.2377 403.211 81.5672"
          stroke="black"
          stroke-opacity="0.4"
          stroke-width="2"
          stroke-linecap="round"
        />
        <path
          d="M532.426 53C529.535 53.1066 525.435 53.7495 523.442 54.2906C521.615 54.7866 519.09 56.6506 517.409 58.2174C516.52 59.0451 515.63 60.1008 515.146 61.2299C514.942 61.7045 514.981 62.0392 515.087 62.3638C515.312 63.0474 516.053 63.6577 516.913 64.1956C518.773 65.3602 521.435 64.4169 524.445 63.7174C527.818 62.9335 531.454 63.4445 532.045 63.7659C532.349 63.9312 532.529 64.3006 532.373 64.6252C531.343 66.7593 528.019 67.2081 526.079 67.9124C524.29 68.5619 522.418 69.5793 521.07 70.2271C519.359 71.0499 518.005 72.1638 516.976 73.3478C516.517 73.8752 516.489 74.8549 516.435 75.8224C516.389 76.6207 517.239 77.2261 517.937 77.8173C520.727 80.1817 526.608 78.6282 527.092 78.9496C527.318 79.0993 527.257 79.4843 527.097 79.7557C526.323 81.0689 524.253 82.282 522.579 84.0071C521.455 84.8664 520.369 85.7322 519.51 86.5383C519.077 86.9179 518.651 87.2377 518.211 87.5672"
          stroke="black"
          stroke-opacity="0.4"
          stroke-width="2"
          stroke-linecap="round"
        />
        <path
          d="M403.426 127C400.535 127.107 396.435 127.749 394.442 128.291C392.615 128.787 390.09 130.651 388.409 132.217C387.52 133.045 386.63 134.101 386.146 135.23C385.942 135.704 385.981 136.039 386.087 136.364C386.312 137.047 387.053 137.658 387.913 138.196C389.773 139.36 392.435 138.417 395.445 137.717C398.818 136.933 402.454 137.444 403.045 137.766C403.349 137.931 403.529 138.301 403.373 138.625C402.343 140.759 399.019 141.208 397.079 141.912C395.29 142.562 393.418 143.579 392.07 144.227C390.359 145.05 389.005 146.164 387.976 147.348C387.517 147.875 387.489 148.855 387.435 149.822C387.389 150.621 388.239 151.226 388.937 151.817C391.727 154.182 397.608 152.628 398.092 152.95C398.318 153.099 398.257 153.484 398.097 153.756C397.323 155.069 395.253 156.282 393.579 158.007C392.455 158.866 391.369 159.732 390.51 160.538C390.077 160.918 389.651 161.238 389.211 161.567"
          stroke="black"
          stroke-opacity="0.4"
          stroke-width="2"
          stroke-linecap="round"
        />
        <path
          d="M284.426 155C281.535 155.107 277.435 155.749 275.442 156.291C273.615 156.787 271.09 158.651 269.409 160.217C268.52 161.045 267.63 162.101 267.146 163.23C266.942 163.704 266.981 164.039 267.087 164.364C267.312 165.047 268.053 165.658 268.913 166.196C270.773 167.36 273.435 166.417 276.445 165.717C279.818 164.933 283.454 165.444 284.045 165.766C284.349 165.931 284.529 166.301 284.373 166.625C283.343 168.759 280.019 169.208 278.079 169.912C276.29 170.562 274.418 171.579 273.07 172.227C271.359 173.05 270.005 174.164 268.976 175.348C268.517 175.875 268.489 176.855 268.435 177.822C268.389 178.621 269.239 179.226 269.937 179.817C272.727 182.182 278.608 180.628 279.092 180.95C279.318 181.099 279.257 181.484 279.097 181.756C278.323 183.069 276.253 184.282 274.579 186.007C273.455 186.866 272.369 187.732 271.51 188.538C271.077 188.918 270.651 189.238 270.211 189.567"
          stroke="black"
          stroke-opacity="0.4"
          stroke-width="2"
          stroke-linecap="round"
        />
        <path
          d="M468.426 173C465.535 173.107 461.435 173.749 459.442 174.291C457.615 174.787 455.09 176.651 453.409 178.217C452.52 179.045 451.63 180.101 451.146 181.23C450.942 181.704 450.981 182.039 451.087 182.364C451.312 183.047 452.053 183.658 452.913 184.196C454.773 185.36 457.435 184.417 460.445 183.717C463.818 182.933 467.454 183.444 468.045 183.766C468.349 183.931 468.529 184.301 468.373 184.625C467.343 186.759 464.019 187.208 462.079 187.912C460.29 188.562 458.418 189.579 457.07 190.227C455.359 191.05 454.005 192.164 452.976 193.348C452.517 193.875 452.489 194.855 452.435 195.822C452.389 196.621 453.239 197.226 453.937 197.817C456.727 200.182 462.608 198.628 463.092 198.95C463.318 199.099 463.257 199.484 463.097 199.756C462.323 201.069 460.253 202.282 458.579 204.007C457.455 204.866 456.369 205.732 455.51 206.538C455.077 206.918 454.651 207.238 454.211 207.567"
          stroke="black"
          stroke-opacity="0.4"
          stroke-width="2"
          stroke-linecap="round"
        />
        <path
          d="M560.426 142C557.535 142.107 553.435 142.749 551.442 143.291C549.615 143.787 547.09 145.651 545.409 147.217C544.52 148.045 543.63 149.101 543.146 150.23C542.942 150.704 542.981 151.039 543.087 151.364C543.312 152.047 544.053 152.658 544.913 153.196C546.773 154.36 549.435 153.417 552.445 152.717C555.818 151.933 559.454 152.444 560.045 152.766C560.349 152.931 560.529 153.301 560.373 153.625C559.343 155.759 556.019 156.208 554.079 156.912C552.29 157.562 550.418 158.579 549.07 159.227C547.359 160.05 546.005 161.164 544.976 162.348C544.517 162.875 544.489 163.855 544.435 164.822C544.389 165.621 545.239 166.226 545.937 166.817C548.727 169.182 554.608 167.628 555.092 167.95C555.318 168.099 555.257 168.484 555.097 168.756C554.323 170.069 552.253 171.282 550.579 173.007C549.455 173.866 548.369 174.732 547.51 175.538C547.077 175.918 546.651 176.238 546.211 176.567"
          stroke="black"
          stroke-opacity="0.4"
          stroke-width="2"
          stroke-linecap="round"
        />
        <path
          d="M580.426 10C577.535 10.1066 573.435 10.7495 571.442 11.2906C569.615 11.7866 567.09 13.6506 565.409 15.2174C564.52 16.0451 563.63 17.1008 563.146 18.2299C562.942 18.7045 562.981 19.0392 563.087 19.3638C563.312 20.0474 564.053 20.6577 564.913 21.1956C566.773 22.3602 569.435 21.4169 572.445 20.7174C575.818 19.9335 579.454 20.4445 580.045 20.7659C580.349 20.9312 580.529 21.3006 580.373 21.6252C579.343 23.7593 576.019 24.2081 574.079 24.9124C572.29 25.5619 570.418 26.5793 569.07 27.2271C567.359 28.0499 566.005 29.1638 564.976 30.3478C564.517 30.8752 564.489 31.8549 564.435 32.8224C564.389 33.6207 565.239 34.2261 565.937 34.8173C568.727 37.1817 574.608 35.6282 575.092 35.9496C575.318 36.0993 575.257 36.4843 575.097 36.7557C574.323 38.0689 572.253 39.282 570.579 41.0071C569.455 41.8664 568.369 42.7322 567.51 43.5383C567.077 43.9179 566.651 44.2377 566.211 44.5672"
          stroke="black"
          stroke-opacity="0.4"
          stroke-width="2"
          stroke-linecap="round"
        />
        <path
          d="M633.426 134C630.535 134.107 626.435 134.749 624.442 135.291C622.615 135.787 620.09 137.651 618.409 139.217C617.52 140.045 616.63 141.101 616.146 142.23C615.942 142.704 615.981 143.039 616.087 143.364C616.312 144.047 617.053 144.658 617.913 145.196C619.773 146.36 622.435 145.417 625.445 144.717C628.818 143.933 632.454 144.444 633.045 144.766C633.349 144.931 633.529 145.301 633.373 145.625C632.343 147.759 629.019 148.208 627.079 148.912C625.29 149.562 623.418 150.579 622.07 151.227C620.359 152.05 619.005 153.164 617.976 154.348C617.517 154.875 617.489 155.855 617.435 156.822C617.389 157.621 618.239 158.226 618.937 158.817C621.727 161.182 627.608 159.628 628.092 159.95C628.318 160.099 628.257 160.484 628.097 160.756C627.323 162.069 625.253 163.282 623.579 165.007C622.455 165.866 621.369 166.732 620.51 167.538C620.077 167.918 619.651 168.238 619.211 168.567"
          stroke="black"
          stroke-opacity="0.4"
          stroke-width="2"
          stroke-linecap="round"
        />
        <path
          d="M689.426 72C686.535 72.1066 682.435 72.7495 680.442 73.2906C678.615 73.7866 676.09 75.6506 674.409 77.2174C673.52 78.0451 672.63 79.1008 672.146 80.2299C671.942 80.7045 671.981 81.0392 672.087 81.3638C672.312 82.0474 673.053 82.6577 673.913 83.1956C675.773 84.3602 678.435 83.4169 681.445 82.7174C684.818 81.9335 688.454 82.4445 689.045 82.7659C689.349 82.9312 689.529 83.3006 689.373 83.6252C688.343 85.7593 685.019 86.2081 683.079 86.9124C681.29 87.5619 679.418 88.5793 678.07 89.2271C676.359 90.0499 675.005 91.1638 673.976 92.3478C673.517 92.8752 673.489 93.8549 673.435 94.8224C673.389 95.6207 674.239 96.2261 674.937 96.8173C677.727 99.1817 683.608 97.6282 684.092 97.9496C684.318 98.0993 684.257 98.4843 684.097 98.7557C683.323 100.069 681.253 101.282 679.579 103.007C678.455 103.866 677.369 104.732 676.51 105.538C676.077 105.918 675.651 106.238 675.211 106.567"
          stroke="black"
          stroke-opacity="0.4"
          stroke-width="2"
          stroke-linecap="round"
        />
        <path
          d="M147.142 133.655C149.81 133.655 155.212 134.081 157.095 134.569C158.838 135.02 160.594 135.697 162.319 136.344C164.18 137.043 164.69 139.14 164.803 140.434C164.934 141.925 163.405 143.017 162.277 144.258C160.959 145.707 159.101 146.571 157.808 147.543C156.565 148.477 155.225 149.052 153.931 149.536C153.606 149.698 153.286 149.911 152.962 150.021C152.637 150.131 152.317 150.131 151.988 150.131"
          stroke="black"
          stroke-opacity="0.4"
          stroke-width="2"
          stroke-linecap="round"
        />
        <path
          d="M345 95.6619C345.888 93.1456 348.088 88.194 349.175 86.5803C350.181 85.0873 351.403 83.6564 352.588 82.2453C353.866 80.723 356.014 80.94 357.272 81.264C358.721 81.6375 359.242 83.4428 360.036 84.9189C360.965 86.6441 361.16 88.6834 361.647 90.2272C362.114 91.7103 362.209 93.1649 362.236 94.5463C362.28 94.9062 362.375 95.2788 362.37 95.6215C362.366 95.9642 362.259 96.2658 362.149 96.5765"
          stroke="black"
          stroke-opacity="0.4"
          stroke-width="2"
          stroke-linecap="round"
        />
        <path
          d="M142 30.6618C142.888 28.1455 145.088 23.1939 146.175 21.5803C147.181 20.0873 148.403 18.6564 149.588 17.2452C150.866 15.7229 153.014 15.9399 154.272 16.2639C155.721 16.6374 156.242 18.4427 157.036 19.9189C157.965 21.644 158.16 23.6834 158.647 25.2271C159.114 26.7103 159.209 28.1648 159.236 29.5462C159.28 29.9061 159.375 30.2787 159.37 30.6214C159.366 30.9641 159.259 31.2657 159.149 31.5765"
          stroke="black"
          stroke-opacity="0.4"
          stroke-width="2"
          stroke-linecap="round"
        />
        <path
          d="M13 107.662C13.8882 105.146 16.0883 100.194 17.1752 98.5803C18.1809 97.0873 19.403 95.6564 20.588 94.2453C21.8664 92.723 24.0139 92.94 25.2716 93.264C26.7212 93.6375 27.2416 95.4428 28.0361 96.9189C28.9646 98.6441 29.1602 100.683 29.6465 102.227C30.1137 103.71 30.2094 105.165 30.2357 106.546C30.28 106.906 30.3746 107.279 30.3701 107.621C30.3656 107.964 30.2591 108.266 30.1494 108.577"
          stroke="black"
          stroke-opacity="0.4"
          stroke-width="2"
          stroke-linecap="round"
        />
        <path
          d="M494 31.6618C494.888 29.1455 497.088 24.1939 498.175 22.5803C499.181 21.0873 500.403 19.6564 501.588 18.2452C502.866 16.7229 505.014 16.9399 506.272 17.2639C507.721 17.6374 508.242 19.4427 509.036 20.9189C509.965 22.644 510.16 24.6834 510.647 26.2271C511.114 27.7103 511.209 29.1648 511.236 30.5462C511.28 30.9061 511.375 31.2787 511.37 31.6214C511.366 31.9641 511.259 32.2657 511.149 32.5765"
          stroke="black"
          stroke-opacity="0.4"
          stroke-width="2"
          stroke-linecap="round"
        />
        <path
          d="M614 112.662C614.888 110.146 617.088 105.194 618.175 103.58C619.181 102.087 620.403 100.656 621.588 99.2453C622.866 97.723 625.014 97.94 626.272 98.264C627.721 98.6375 628.242 100.443 629.036 101.919C629.965 103.644 630.16 105.683 630.647 107.227C631.114 108.71 631.209 110.165 631.236 111.546C631.28 111.906 631.375 112.279 631.37 112.621C631.366 112.964 631.259 113.266 631.149 113.577"
          stroke="black"
          stroke-opacity="0.4"
          stroke-width="2"
          stroke-linecap="round"
        />
        <path
          d="M580 194.662C580.888 192.146 583.088 187.194 584.175 185.58C585.181 184.087 586.403 182.656 587.588 181.245C588.866 179.723 591.014 179.94 592.272 180.264C593.721 180.637 594.242 182.443 595.036 183.919C595.965 185.644 596.16 187.683 596.647 189.227C597.114 190.71 597.209 192.165 597.236 193.546C597.28 193.906 597.375 194.279 597.37 194.621C597.366 194.964 597.259 195.266 597.149 195.577"
          stroke="black"
          stroke-opacity="0.4"
          stroke-width="2"
          stroke-linecap="round"
        />
        <path
          d="M485 150.662C485.888 148.146 488.088 143.194 489.175 141.58C490.181 140.087 491.403 138.656 492.588 137.245C493.866 135.723 496.014 135.94 497.272 136.264C498.721 136.637 499.242 138.443 500.036 139.919C500.965 141.644 501.16 143.683 501.647 145.227C502.114 146.71 502.209 148.165 502.236 149.546C502.28 149.906 502.375 150.279 502.37 150.621C502.366 150.964 502.259 151.266 502.149 151.577"
          stroke="black"
          stroke-opacity="0.4"
          stroke-width="2"
          stroke-linecap="round"
        />
        <path
          d="M406 196.662C406.888 194.146 409.088 189.194 410.175 187.58C411.181 186.087 412.403 184.656 413.588 183.245C414.866 181.723 417.014 181.94 418.272 182.264C419.721 182.637 420.242 184.443 421.036 185.919C421.965 187.644 422.16 189.683 422.647 191.227C423.114 192.71 423.209 194.165 423.236 195.546C423.28 195.906 423.375 196.279 423.37 196.621C423.366 196.964 423.259 197.266 423.149 197.577"
          stroke="black"
          stroke-opacity="0.4"
          stroke-width="2"
          stroke-linecap="round"
        />
        <path
          d="M264 146.662C264.888 144.146 267.088 139.194 268.175 137.58C269.181 136.087 270.403 134.656 271.588 133.245C272.866 131.723 275.014 131.94 276.272 132.264C277.721 132.637 278.242 134.443 279.036 135.919C279.965 137.644 280.16 139.683 280.647 141.227C281.114 142.71 281.209 144.165 281.236 145.546C281.28 145.906 281.375 146.279 281.37 146.621C281.366 146.964 281.259 147.266 281.149 147.577"
          stroke="black"
          stroke-opacity="0.4"
          stroke-width="2"
          stroke-linecap="round"
        />
        <path
          d="M305 214.662C305.888 212.146 308.088 207.194 309.175 205.58C310.181 204.087 311.403 202.656 312.588 201.245C313.866 199.723 316.014 199.94 317.272 200.264C318.721 200.637 319.242 202.443 320.036 203.919C320.965 205.644 321.16 207.683 321.647 209.227C322.114 210.71 322.209 212.165 322.236 213.546C322.28 213.906 322.375 214.279 322.37 214.621C322.366 214.964 322.259 215.266 322.149 215.577"
          stroke="black"
          stroke-opacity="0.4"
          stroke-width="2"
          stroke-linecap="round"
        />
        <path
          d="M242 72.6618C242.888 70.1455 245.088 65.1939 246.175 63.5803C247.181 62.0873 248.403 60.6564 249.588 59.2452C250.866 57.7229 253.014 57.9399 254.272 58.2639C255.721 58.6374 256.242 60.4427 257.036 61.9189C257.965 63.644 258.16 65.6834 258.647 67.2271C259.114 68.7103 259.209 70.1648 259.236 71.5462C259.28 71.9061 259.375 72.2787 259.37 72.6214C259.366 72.9641 259.259 73.2657 259.149 73.5765"
          stroke="black"
          stroke-opacity="0.4"
          stroke-width="2"
          stroke-linecap="round"
        />
        <path
          d="M148.111 136.562C152.592 136.562 161.46 136.775 162.159 137.258C163.331 138.068 163.508 139.786 163.511 142.421C163.513 144.257 161.686 145.388 160.66 146.572C159.534 147.872 158.242 149.368 156.945 151.308C156.62 152.063 156.191 152.605 155.653 153.088C155.435 153.358 155.328 153.678 154.895 154.007"
          stroke="black"
          stroke-opacity="0.4"
          stroke-width="2"
          stroke-linecap="round"
        />
        <path
          d="M348.064 95.7158C349.556 91.4905 352.709 83.1992 353.397 82.7005C354.55 81.8647 356.23 82.2701 358.715 83.1439C360.447 83.7531 360.906 85.8528 361.681 87.2142C362.531 88.7083 363.512 90.4251 364.91 92.2939C365.513 92.8512 365.882 93.437 366.158 94.105C366.34 94.4004 366.606 94.6074 366.773 95.1253"
          stroke="black"
          stroke-opacity="0.4"
          stroke-width="2"
          stroke-linecap="round"
        />
        <path
          d="M145.064 30.7158C146.556 26.4905 149.709 18.1992 150.397 17.7004C151.55 16.8646 153.23 17.27 155.715 18.1439C157.447 18.753 157.906 20.8528 158.681 22.2141C159.531 23.7082 160.512 25.425 161.91 27.2938C162.513 27.8511 162.882 28.4369 163.158 29.1049C163.34 29.4003 163.606 29.6073 163.773 30.1252"
          stroke="black"
          stroke-opacity="0.4"
          stroke-width="2"
          stroke-linecap="round"
        />
        <path
          d="M16.0643 107.716C17.5558 103.491 20.7087 95.1992 21.3969 94.7005C22.5502 93.8647 24.2296 94.2701 26.715 95.1439C28.4475 95.7531 28.9055 97.8528 29.6806 99.2142C30.5313 100.708 31.5123 102.425 32.9099 104.294C33.5132 104.851 33.882 105.437 34.1583 106.105C34.3401 106.4 34.6062 106.607 34.7729 107.125"
          stroke="black"
          stroke-opacity="0.4"
          stroke-width="2"
          stroke-linecap="round"
        />
        <path
          d="M497.064 31.7158C498.556 27.4905 501.709 19.1992 502.397 18.7004C503.55 17.8646 505.23 18.27 507.715 19.1439C509.447 19.753 509.906 21.8528 510.681 23.2141C511.531 24.7082 512.512 26.425 513.91 28.2938C514.513 28.8511 514.882 29.4369 515.158 30.1049C515.34 30.4003 515.606 30.6073 515.773 31.1252"
          stroke="black"
          stroke-opacity="0.4"
          stroke-width="2"
          stroke-linecap="round"
        />
        <path
          d="M617.064 112.716C618.556 108.491 621.709 100.199 622.397 99.7005C623.55 98.8647 625.23 99.2701 627.715 100.144C629.447 100.753 629.906 102.853 630.681 104.214C631.531 105.708 632.512 107.425 633.91 109.294C634.513 109.851 634.882 110.437 635.158 111.105C635.34 111.4 635.606 111.607 635.773 112.125"
          stroke="black"
          stroke-opacity="0.4"
          stroke-width="2"
          stroke-linecap="round"
        />
        <path
          d="M583.064 194.716C584.556 190.491 587.709 182.199 588.397 181.7C589.55 180.865 591.23 181.27 593.715 182.144C595.447 182.753 595.906 184.853 596.681 186.214C597.531 187.708 598.512 189.425 599.91 191.294C600.513 191.851 600.882 192.437 601.158 193.105C601.34 193.4 601.606 193.607 601.773 194.125"
          stroke="black"
          stroke-opacity="0.4"
          stroke-width="2"
          stroke-linecap="round"
        />
        <path
          d="M488.064 150.716C489.556 146.491 492.709 138.199 493.397 137.7C494.55 136.865 496.23 137.27 498.715 138.144C500.447 138.753 500.906 140.853 501.681 142.214C502.531 143.708 503.512 145.425 504.91 147.294C505.513 147.851 505.882 148.437 506.158 149.105C506.34 149.4 506.606 149.607 506.773 150.125"
          stroke="black"
          stroke-opacity="0.4"
          stroke-width="2"
          stroke-linecap="round"
        />
        <path
          d="M409.064 196.716C410.556 192.491 413.709 184.199 414.397 183.7C415.55 182.865 417.23 183.27 419.715 184.144C421.447 184.753 421.906 186.853 422.681 188.214C423.531 189.708 424.512 191.425 425.91 193.294C426.513 193.851 426.882 194.437 427.158 195.105C427.34 195.4 427.606 195.607 427.773 196.125"
          stroke="black"
          stroke-opacity="0.4"
          stroke-width="2"
          stroke-linecap="round"
        />
        <path
          d="M267.064 146.716C268.556 142.491 271.709 134.199 272.397 133.7C273.55 132.865 275.23 133.27 277.715 134.144C279.447 134.753 279.906 136.853 280.681 138.214C281.531 139.708 282.512 141.425 283.91 143.294C284.513 143.851 284.882 144.437 285.158 145.105C285.34 145.4 285.606 145.607 285.773 146.125"
          stroke="black"
          stroke-opacity="0.4"
          stroke-width="2"
          stroke-linecap="round"
        />
        <path
          d="M308.064 214.716C309.556 210.491 312.709 202.199 313.397 201.7C314.55 200.865 316.23 201.27 318.715 202.144C320.447 202.753 320.906 204.853 321.681 206.214C322.531 207.708 323.512 209.425 324.91 211.294C325.513 211.851 325.882 212.437 326.158 213.105C326.34 213.4 326.606 213.607 326.773 214.125"
          stroke="black"
          stroke-opacity="0.4"
          stroke-width="2"
          stroke-linecap="round"
        />
        <path
          d="M245.064 72.7158C246.556 68.4905 249.709 60.1992 250.397 59.7004C251.55 58.8646 253.23 59.27 255.715 60.1439C257.447 60.753 257.906 62.8528 258.681 64.2141C259.531 65.7082 260.512 67.425 261.91 69.2938C262.513 69.8511 262.882 70.4369 263.158 71.1049C263.34 71.4003 263.606 71.6073 263.773 72.1252"
          stroke="black"
          stroke-opacity="0.4"
          stroke-width="2"
          stroke-linecap="round"
        />
        <path
          d="M255.641 114.592L314.127 88.163L322.035 108.68L261.498 132.499C261.498 132.499 255.772 139.321 253.135 147.383C250.498 155.445 222.75 144.032 221.349 142.143C219.948 140.253 227.415 111.137 240.499 114.598C253.582 118.058 255.641 114.592 255.641 114.592Z"
          fill="#232329"
          stroke="#46464F"
          stroke-width="4"
        />
        <path
          d="M247.533 129.488C249.163 133.717 247.386 138.118 243.879 139.47C240.372 140.822 236.1 138.752 234.47 134.523C232.84 130.294 234.617 125.892 238.124 124.541C241.631 123.189 245.903 125.259 247.533 129.488Z"
          fill="black"
          fill-opacity="0.4"
          stroke="#46464F"
          stroke-width="2"
        />
        <path
          d="M249.895 118.932C247.537 119.327 243.813 119.1 242.436 119.21C240.796 119.34 238.161 119.096 236.608 119.015C236.29 118.998 235.961 118.903 235.973 118.946C236.297 120.097 238.317 119.547 239.818 119.644C241.164 119.73 242.6 119.661 244.022 119.687C246.412 119.339 247.802 119.009 248.45 119.123C248.768 119.158 249.063 119.147 249.368 119.135"
          stroke="#46464F"
          stroke-width="2"
          stroke-linecap="round"
        />
        <path
          d="M237.857 118.286C236.453 120.788 233.869 124.953 232.761 126.466C231.785 127.798 230.24 129.704 229.091 131.139C227.962 132.549 233.343 123.883 234.391 122.341C235.43 120.814 236.643 119.548 237.232 118.726C238.304 117.228 235.014 120.958 234.223 122.005C233.411 123.079 232.367 124.152 231.624 125.325C230.75 126.158 230.103 126.802 229.674 127.361C229.436 127.651 229.159 127.953 228.553 128.981"
          stroke="#46464F"
          stroke-width="2"
          stroke-linecap="round"
        />
        <path
          d="M260.944 128.134C259.778 129.507 257.499 132.45 256.255 134.277C255.21 135.811 254.173 137.353 253.261 138.686C252.629 139.608 252.359 140.536 252.135 140.573C250.714 140.806 253.514 137.415 254.319 136.167C255.108 134.944 256.211 133.579 256.994 132.656C257.869 131.623 258.617 130.481 259.222 129.574C259.771 128.75 257.516 131.52 256.523 132.882C255.554 134.211 254.524 135.562 253.761 136.79C253.067 137.907 252.444 138.541 252.219 138.576C251.19 138.739 253.533 137.197 255.872 134.076C256.96 132.623 257.776 131.736 258.764 130.733C259.736 129.748 260.09 128.878 259.959 128.772C257.592 126.845 256.663 132.258 255.585 133.4C254.452 134.601 253.628 135.703 252.897 136.761C252.701 136.994 252.49 137.177 252.293 137.408C252.096 137.639 251.92 137.912 251.594 138.558"
          stroke="#46464F"
          stroke-width="2"
          stroke-linecap="round"
        />
        <path
          d="M274.864 42C274.864 43.423 274.553 46.8167 274.354 49.464C274.31 50.0488 274.238 50.5809 274.198 53.69C274.158 56.7991 274.158 62.4695 274.197 65.5679C274.248 69.6573 274.704 71.7861 275.255 73.6749C275.975 76.1456 275.57 77.8807 276 79.493C276.098 79.8621 276.196 80.1199 276.236 82.9149C276.276 85.7098 276.276 91.0259 276.315 93.8974C276.358 97.0371 276.512 97.5743 276.551 97.8442C276.669 98.6654 276.825 96.1487 276.942 92.4664C277.049 89.1403 276.982 82.8478 276.944 79.4299C276.892 74.9276 276.356 73.3326 276.237 70.9162C276.211 70.3729 276.121 70.0194 276.081 67.0459C276.041 64.0724 276.041 58.4905 276.002 55.4821C275.94 50.6889 275.65 47.6436 275.531 46.1226C275.437 44.9196 275.099 44.1506 274.983 43.9694C274.901 43.8423 274.633 44.4969 274.513 47.2946C274.393 50.0922 274.393 55.2311 274.354 58.1442C274.296 62.4963 274.002 63.9194 274 69.4556C273.999 72.48 274.704 59.4571 275.098 58.159C275.273 57.5844 275.49 56.8608 275.764 56.0567C275.976 55.4362 276.041 59.7632 276.08 66.9654C276.111 72.679 276.432 77.8807 276.512 80.0756C276.588 82.1686 276.276 75.663 275.847 72.4398C275.724 71.5221 275.492 70.8222 275.375 66.8727C275.27 63.368 275.335 56.8098 275.335 54.7169C275.335 51.0604 275.57 61.0465 275.765 64.5772C276.042 69.5801 275.961 73.7621 276.196 75.9906C276.276 77.333 276.276 79.105 276.315 80.1508C276.354 81.1966 276.432 81.4624 276.747 82.0047"
          stroke="black"
          stroke-opacity="0.4"
          stroke-width="2"
          stroke-linecap="round"
        />
        <path
          d="M213.658 146.074C211.342 145.221 205.241 143.266 195.988 143.008C190.613 142.859 189.04 144.721 180.796 149.484C177.393 151.45 175.934 152.807 173.971 154.58C171.049 157.221 167.848 160.158 162.895 163.824C160.81 165.367 158.902 166.281 157.125 167.387C153.146 169.864 145.31 172.169 141.578 172.779C134.133 173.996 130.116 171.074 128.212 170.03C125.243 168.402 124.228 166.296 122.82 164.642C120.95 162.445 119.818 160.907 116.03 156.991C114.295 155.198 109.556 153.924 104.822 153.119C98.9518 152.121 95.4423 154.159 93.7847 154.707C91.376 155.503 86.8933 160.613 84.2875 163.771C82.9552 165.385 82.2035 167.016 79.2724 170.989C77.6364 173.207 75.9627 176.315 74.7315 178.412C74.5067 178.794 74.2426 179.145 73.8751 179.332C72.3215 180.125 70.207 179.887 68.1801 179.461C65.8695 178.975 63.8339 175.366 57.5398 165.167C53.9352 159.326 51.4699 153.954 50.4095 150.552C50.3489 150.12 50.2276 149.756 50.0438 149.387C49.86 149.018 49.6175 148.654 49 147.911"
          stroke="black"
          stroke-opacity="0.4"
          stroke-width="2"
          stroke-linecap="round"
        />
      </svg>